<?xml version="1.0" encoding="utf-8"?>
<!-- Generator: Adobe Illustrator 16.0.0, SVG Export Plug-In . SVG Version: 6.00 Build 0)  -->
<!DOCTYPE svg PUBLIC "-//W3C//DTD SVG 1.1//EN" "http://www.w3.org/Graphics/SVG/1.1/DTD/svg11.dtd">
<svg version="1.1" id="Layer_1" xmlns="http://www.w3.org/2000/svg" xmlns:xlink="http://www.w3.org/1999/xlink" x="0px" y="0px"
	 width="100px" height="100px" viewBox="0 0 100 100" enable-background="new 0 0 100 100" xml:space="preserve">
<g>
	<path d="M-34.833,70.066c-0.424-2.44-0.863-4.964-0.795-7.158c0.004-0.092-0.008-0.183-0.019-0.272
		c-0.175-3.356-1.146-12.865-6.47-12.865h-6.424c-2.987-8.057-6.078-14.246-6.385-14.853c-0.297-0.59-0.902-0.962-1.563-0.962
		h-26.008c-0.66,0-1.266,0.372-1.563,0.962c-0.307,0.606-3.397,6.796-6.385,14.853h-6.33c-5.361,0-6.336,9.525-6.512,12.872
		c-0.01,0.088-0.021,0.176-0.018,0.266c0.068,2.192-0.374,4.715-0.801,7.153c-0.653,3.727-1.329,7.58-0.373,10.92
		c1.806,6.303,8.699,9.917,18.914,9.917c0.18,0,2.168,0.099,3.066,0.099h26.008c0.947,0,3.054-0.099,3.256-0.099
		c10.136,0,16.977-3.615,18.769-9.921C-33.516,77.642-34.186,73.79-34.833,70.066z M-42.116,53.271c1.111,0,2.371,3.645,2.832,7.833
		h-5.641c-0.696-2.665-1.51-5.308-2.371-7.833H-42.116z M-63.079,68.821l-3.619-3.25l3.6-3.231
		C-63.058,64.785-63.05,66.979-63.079,68.821z M-63.455,50.306l-3.243-2.911l2.994-2.688
		C-63.612,46.594-63.529,48.468-63.455,50.306z M-74.598,37.456h10.507c0.054,0.914,0.106,1.833,0.156,2.755l-5.382,4.832
		l-5.436-4.879C-74.702,39.259-74.651,38.355-74.598,37.456z M-74.984,44.659l3.047,2.735l-3.3,2.963
		C-75.161,48.487-75.077,46.58-74.984,44.659z M-75.407,55.01c0.223-0.073,0.437-0.188,0.623-0.355l5.467-4.908l5.467,4.908
		c0.17,0.153,0.363,0.266,0.567,0.34c0.033,1.005,0.063,1.99,0.089,2.951c-0.236,0.072-0.461,0.191-0.656,0.367l-5.467,4.907
		l-5.467-4.907c-0.211-0.189-0.455-0.311-0.711-0.38C-75.469,56.98-75.44,56.005-75.407,55.01z M-75.591,62.291l3.654,3.28
		l-3.674,3.298C-75.639,67.005-75.631,64.777-75.591,62.291z M-96.772,53.271h5.086c-0.861,2.525-1.675,5.168-2.371,7.833h-5.588
		C-99.18,56.915-97.904,53.271-96.772,53.271z M-101.11,80.019c-0.734-2.565-0.157-5.862,0.455-9.353
		c0.344-1.961,0.693-3.973,0.814-5.933h4.921c-1.704,7.952-2.039,15.705,1.02,20.673c0.241,0.393,0.511,0.754,0.787,1.105
		C-97.403,85.364-100.217,83.137-101.11,80.019z M-48.062,83.571c-1.626,2.642-4.382,3.926-8.425,3.926h-26.008
		c-4.042,0-6.798-1.284-8.424-3.926c-6.004-9.749,4.415-35.698,9.51-46.115h3.305c-2.158,36.871-0.346,38.705,0.254,39.304
		c0.342,0.342,0.789,0.513,1.237,0.513s0.896-0.171,1.237-0.513c0.613-0.612,0.676-1.566,0.189-2.25
		c-0.09-0.266-0.166-0.72-0.227-1.321c0.225-0.073,0.44-0.188,0.628-0.357l5.468-4.908l5.467,4.908
		c0.173,0.155,0.369,0.269,0.575,0.343c-0.062,0.609-0.138,1.068-0.229,1.336c-0.486,0.684-0.422,1.638,0.19,2.25
		c0.342,0.342,0.79,0.513,1.237,0.513s0.896-0.171,1.237-0.513c0.6-0.599,2.413-2.433,0.254-39.304h3.014
		C-52.477,47.871-42.055,73.815-48.062,83.571z M-37.83,80.021c-0.896,3.153-3.736,5.397-8.068,6.531
		c0.288-0.363,0.565-0.739,0.816-1.146c3.059-4.968,2.724-12.721,1.02-20.673h4.975c0.119,1.96,0.466,3.971,0.807,5.932
		C-37.674,74.156-37.101,77.454-37.83,80.021z"/>
	<path d="M-95.907,32.249h39.864c0.001,0,0.003,0.001,0.005,0.001s0.004-0.001,0.005-0.001h13.2c3.298,0,5.98-2.683,5.98-5.979
		v-7.376c0-3.298-2.683-5.98-5.98-5.98h-53.074c-3.297,0-5.98,2.683-5.98,5.98v7.376C-101.887,29.566-99.204,32.249-95.907,32.249z
		 M-54.288,16.413h11.455c1.368,0,2.48,1.112,2.48,2.48v7.376c0,1.367-1.112,2.479-2.48,2.479h-11.455V16.413z M-80.808,16.413
		h23.021v12.336h-23.021V16.413z M-98.387,18.894c0-1.368,1.113-2.48,2.48-2.48h11.599v12.336h-11.599
		c-1.367,0-2.48-1.112-2.48-2.479V18.894z"/>
	<circle cx="-74.795" cy="81.255" r="2.485"/>
</g>
<g>
	<path d="M53.489,38.426c0.314,0.259,0.709,0.398,1.112,0.398c0.058,0,0.114-0.003,0.171-0.008c0.463-0.045,0.889-0.273,1.184-0.633
		c2.036-2.488,3.574-5.347,4.447-8.269c0.201-0.675-0.021-1.405-0.565-1.853l-17.87-14.705c-0.543-0.447-1.303-0.526-1.926-0.198
		c-2.694,1.415-5.204,3.475-7.258,5.957c-0.297,0.358-0.438,0.82-0.395,1.283c0.045,0.463,0.271,0.889,0.631,1.185L53.489,38.426z
		 M40.671,16.824l16.016,13.178c-0.58,1.577-1.387,3.121-2.383,4.562L36.654,20.041C37.878,18.784,39.237,17.695,40.671,16.824z"/>
	<path d="M43.24,47.886c0.319,0.263,0.714,0.399,1.112,0.399c0.262,0,0.525-0.059,0.77-0.178c2.396-1.174,4.6-2.798,6.545-4.827
		c0.338-0.352,0.514-0.828,0.484-1.314c-0.028-0.486-0.258-0.938-0.635-1.248L31.153,23.96c-0.376-0.31-0.862-0.45-1.348-0.383
		c-0.482,0.065-0.916,0.329-1.195,0.728c-1.617,2.3-2.787,4.774-3.477,7.353c-0.178,0.663,0.049,1.368,0.578,1.804L43.24,47.886z
		 M30.452,27.916l17.318,14.25c-1.009,0.879-2.08,1.641-3.205,2.278L28.834,31.498C29.243,30.271,29.784,29.074,30.452,27.916z"/>
	<path d="M61.065,25.157c0.317,0.262,0.712,0.398,1.111,0.398c0.202,0,0.405-0.035,0.601-0.106c0.583-0.213,1.009-0.718,1.12-1.328
		c1.043-5.686-0.563-10.913-4.295-13.983c-3.719-3.06-9.215-3.625-14.551-1.522c-0.576,0.227-0.99,0.743-1.086,1.355
		c-0.098,0.612,0.137,1.23,0.616,1.624L61.065,25.157z M57.378,12.84c2.102,1.729,3.256,4.371,3.336,7.496l-11.329-9.322
		C52.434,10.507,55.32,11.146,57.378,12.84z"/>
	<path d="M29.119,58.885c-3.136,0-5.94-1.056-8.111-3.052c-1.734-1.595-2.782-3.879-2.95-6.43c-0.039-0.592-0.375-1.125-0.895-1.414
		c-0.518-0.29-1.146-0.295-1.672-0.018c-1.603,0.851-3.002,1.996-4.158,3.404c-4.369,5.309-4.081,12.792,0.643,16.68
		c1.836,1.51,4.114,2.309,6.588,2.309c3.683,0,7.385-1.828,9.905-4.89c1.062-1.292,1.868-2.729,2.397-4.271
		c0.184-0.535,0.051-1.125-0.277-1.585S29.685,58.885,29.119,58.885z M25.765,63.252c-1.861,2.262-4.553,3.612-7.201,3.612
		c-1.652,0-3.162-0.523-4.363-1.511c-3.234-2.662-3.309-7.934-0.164-11.754c0.316-0.386,0.658-0.746,1.023-1.078
		c0.646,2.286,1.871,4.318,3.579,5.888c2.174,1.999,4.915,3.297,7.899,3.772C26.306,62.551,26.047,62.908,25.765,63.252z"/>
	<path d="M68.929,35.542c-0.543-0.446-1.301-0.526-1.926-0.198c-2.696,1.416-5.206,3.476-7.257,5.957
		c-0.296,0.358-0.438,0.82-0.394,1.283c0.045,0.462,0.271,0.889,0.631,1.184L80.45,60.61c0.314,0.259,0.709,0.398,1.112,0.398
		c0.058,0,0.114-0.003,0.171-0.008c0.463-0.046,0.889-0.273,1.184-0.633c2.038-2.49,3.576-5.35,4.447-8.269
		c0.201-0.675-0.021-1.404-0.564-1.852L68.929,35.542z M81.265,56.748L63.616,42.225c1.223-1.256,2.582-2.345,4.016-3.217
		l16.016,13.178C83.068,53.762,82.261,55.305,81.265,56.748z"/>
	<path d="M58.113,46.145c-0.376-0.31-0.864-0.449-1.348-0.382c-0.483,0.065-0.917,0.33-1.196,0.729
		c-1.617,2.303-2.787,4.776-3.476,7.352c-0.177,0.663,0.049,1.368,0.579,1.804l17.529,14.425c0.319,0.263,0.714,0.399,1.112,0.399
		c0.262,0,0.525-0.059,0.771-0.179c2.396-1.176,4.599-2.8,6.544-4.826c0.338-0.352,0.513-0.828,0.485-1.314
		c-0.029-0.486-0.26-0.939-0.636-1.249L58.113,46.145z M71.526,66.629L55.794,53.683c0.409-1.225,0.951-2.423,1.619-3.582
		l17.318,14.25C73.724,65.229,72.652,65.991,71.526,66.629z"/>
	<path d="M86.563,32.322c-3.718-3.06-9.214-3.625-14.549-1.522c-0.578,0.227-0.99,0.743-1.088,1.355
		c-0.096,0.613,0.139,1.23,0.617,1.625l16.482,13.562c0.318,0.262,0.713,0.398,1.111,0.398c0.203,0,0.406-0.035,0.602-0.106
		c0.582-0.213,1.008-0.718,1.12-1.328C91.901,40.62,90.296,35.393,86.563,32.322z M76.347,33.199
		c3.051-0.506,5.936,0.133,7.993,1.826c2.101,1.729,3.254,4.371,3.335,7.496L76.347,33.199z"/>
	<path d="M56.079,81.07c-3.134,0-5.938-1.056-8.109-3.053c-1.736-1.596-2.783-3.879-2.951-6.429
		c-0.039-0.593-0.376-1.125-0.895-1.414c-0.518-0.289-1.148-0.295-1.674-0.017c-1.601,0.851-3,1.996-4.156,3.404
		c-4.368,5.309-4.08,12.792,0.645,16.679c1.834,1.51,4.111,2.309,6.585,2.309c3.683,0,7.386-1.827,9.903-4.888
		c1.059-1.286,1.867-2.723,2.4-4.271c0.185-0.535,0.053-1.125-0.275-1.586C57.223,81.343,56.646,81.07,56.079,81.07z M52.725,85.437
		c-1.86,2.262-4.554,3.612-7.201,3.612c-1.652,0-3.16-0.522-4.361-1.511c-3.233-2.662-3.308-7.934-0.165-11.753
		c0.317-0.386,0.658-0.746,1.023-1.078c0.646,2.285,1.871,4.316,3.58,5.887c2.174,1.999,4.915,3.298,7.898,3.773
		C53.266,84.737,53.007,85.094,52.725,85.437z"/>
</g>
<g>
	<path d="M213.591,70.764h-22.717c0.012-0.332,0.023-0.665,0.023-0.992c0-17.339-14.105-31.445-31.445-31.445
		c-17.339,0-31.445,14.106-31.445,31.445c0,0.937,0.045,1.886,0.139,2.902c0.082,0.9,0.838,1.59,1.742,1.59h56.748h2.381h24.574
		c0.966,0,1.75-0.784,1.75-1.75S214.557,70.764,213.591,70.764z M131.526,70.764c-0.014-0.335-0.02-0.665-0.02-0.992
		c0-12.762,8.604-23.546,20.313-26.877c-5.336,5.435-8.887,15.751-8.959,27.869H131.526z M146.36,70.764
		c0.099-14.701,5.945-27.162,13.092-28.376c7.148,1.214,12.995,13.675,13.094,28.376H146.36z M187.379,70.764h-0.743h-10.59
		c-0.072-12.118-3.623-22.435-8.959-27.869c11.708,3.33,20.311,14.114,20.311,26.876C187.397,70.1,187.392,70.43,187.379,70.764z"/>
	<path d="M157.046,33.146h4.813c0.967,0,1.75-0.784,1.75-1.75s-0.783-1.75-1.75-1.75h-4.813c-0.966,0-1.75,0.784-1.75,1.75
		S156.08,33.146,157.046,33.146z"/>
</g>
<g>
	<path d="M287.786,24.51v-8.911c0-0.966-0.784-1.75-1.75-1.75h-14.754c-0.966,0-1.75,0.784-1.75,1.75v8.911
		c0,0.966,0.784,1.75,1.75,1.75h14.754C287.002,26.26,287.786,25.476,287.786,24.51z M284.286,22.76h-11.254v-5.411h11.254V22.76z"
		/>
	<path d="M313.822,24.51v-8.911c0-0.966-0.784-1.75-1.75-1.75H297.32c-0.966,0-1.75,0.784-1.75,1.75v8.911
		c0,0.966,0.784,1.75,1.75,1.75h14.752C313.038,26.26,313.822,25.476,313.822,24.51z M310.322,22.76H299.07v-5.411h11.252V22.76z"/>
	<path d="M291.677,38.582c-2.99,0-5.423,2.585-5.423,5.764v10.664c0,3.179,2.433,5.765,5.423,5.765c2.992,0,5.425-2.586,5.425-5.765
		V44.345C297.102,41.167,294.669,38.582,291.677,38.582z M293.602,55.009c0,1.249-0.863,2.265-1.925,2.265
		c-1.061,0-1.923-1.016-1.923-2.265V44.345c0-1.248,0.862-2.264,1.923-2.264c1.062,0,1.925,1.016,1.925,2.264V55.009z"/>
	<path d="M278.225,30.556h-6.376c-1.536,0-2.893,1.001-3.346,2.469l-11.767,38.167c-0.223,0.293-0.36,0.655-0.36,1.052
		c0,0.03,0.008,0.058,0.01,0.087l-4.07,13.201c-0.327,1.062-0.131,2.216,0.529,3.11c0.659,0.894,1.705,1.421,2.815,1.421h22.564
		c1.933,0,3.5-1.567,3.5-3.5V34.056C281.725,32.123,280.157,30.556,278.225,30.556z M271.849,34.056h6.376v36.438h-17.61
		L271.849,34.056z M255.66,86.562l3.875-12.569h18.689v12.569H255.66z"/>
	<path d="M331.039,85.531l-16.188-52.506c-0.452-1.468-1.809-2.469-3.344-2.469h-6.376c-1.933,0-3.5,1.567-3.5,3.5v52.506
		c0,1.933,1.567,3.5,3.5,3.5h22.563c1.111,0,2.156-0.528,2.816-1.421C331.17,87.747,331.366,86.593,331.039,85.531z M311.507,34.056
		l11.233,36.438h-17.609V34.056H311.507z M305.131,86.562V73.993h18.688l3.875,12.569H305.131z"/>
</g>
<g>
	<path d="M415.793,34.987h-15.125c-3.297,0-5.98,2.683-5.98,5.98v39.966c0,3.298,2.684,5.98,5.98,5.98h15.125
		c3.297,0,5.979-2.683,5.979-5.98V40.967C421.771,37.669,419.09,34.987,415.793,34.987z M418.271,80.933
		c0,1.368-1.111,2.48-2.479,2.48h-15.125c-1.367,0-2.48-1.112-2.48-2.48V40.967c0-1.368,1.113-2.48,2.48-2.48h15.125
		c1.367,0,2.479,1.112,2.479,2.48V80.933z"/>
	<path d="M418.764,88.445h-21.068c-0.965,0-1.75,0.783-1.75,1.75c0,0.966,0.785,1.75,1.75,1.75h21.068c0.967,0,1.75-0.784,1.75-1.75
		C420.514,89.228,419.73,88.445,418.764,88.445z"/>
	<path d="M416.578,10.346h-16.697c-3.297,0-5.979,2.683-5.979,5.98V30.02c0,0.967,0.783,1.75,1.75,1.75h25.156
		c0.967,0,1.75-0.783,1.75-1.75V16.327C422.559,13.029,419.875,10.346,416.578,10.346z M419.059,28.27h-21.656V16.327
		c0-1.368,1.111-2.48,2.479-2.48h16.697c1.367,0,2.48,1.112,2.48,2.48V28.27z"/>
	<path d="M431.365,16.628h-3.828c-0.965,0-1.75,0.784-1.75,1.75V30.02c0,0.967,0.785,1.75,1.75,1.75h3.828
		c2.373,0,4.232-1.485,4.232-3.381V20.01C435.598,18.114,433.738,16.628,431.365,16.628z M432.098,28.117
		c-0.139,0.071-0.395,0.153-0.732,0.153h-2.078v-8.142h2.078c0.338,0,0.594,0.082,0.732,0.154V28.117z"/>
</g>
<g>
	<path d="M-89.662,175.383c-0.015,0.213-0.027,0.426-0.027,0.642c0,4.03,1.169,7.784,3.159,10.976
		c1.337,2.146,3.048,4.026,5.049,5.559c3.508,2.686,7.877,4.3,12.626,4.3c0.327,0,0.649-0.021,0.972-0.044l0.071-0.005l0.071,0.005
		c0.321,0.023,0.644,0.044,0.972,0.044c3.889,0,7.519-1.091,10.638-2.953c2.138-1.276,4.034-2.913,5.588-4.845
		c2.877-3.572,4.608-8.104,4.608-13.036c0-0.216-0.014-0.429-0.027-0.642l-0.012-0.182c0.237-3.635-0.41-8.039-1.924-13.095
		c-4.12-13.765-4.219-16.809-4.217-17.105c0.098-0.891-0.499-1.725-1.394-1.905c-0.945-0.189-1.868,0.421-2.062,1.366
		c-0.015,0.073-1.329,6.539-2.466,12.662c-0.005-0.002-0.009-0.004-0.013-0.006c-0.222-2.816-0.809-5.855-1.75-9.053
		c-3.474-11.806-4.361-17.33-4.576-19.627c0.098-1.316-0.011-2.201-0.024-2.301c-0.108-0.818-0.773-1.45-1.596-1.515
		c-0.06-0.004-0.119-0.008-0.177-0.005c-0.562-0.005-1.099,0.235-1.449,0.709c-0.258,0.349-2.677,3.949-8.205,22.739
		c-0.941,3.197-1.529,6.236-1.75,9.053c-0.005,0.002-0.009,0.004-0.013,0.006c-1.138-6.123-2.452-12.588-2.467-12.662
		c-0.192-0.946-1.117-1.559-2.061-1.366c-0.896,0.181-1.492,1.015-1.394,1.905c0.002,0.296-0.098,3.341-4.217,17.105
		c-1.514,5.055-2.161,9.46-1.925,13.095L-89.662,175.383z M-68.418,192.73c-3.754,0-6.808-3.054-6.808-6.807
		c0-3.754,3.054-6.808,6.808-6.808c3.753,0,6.807,3.054,6.807,6.808C-61.612,189.677-64.666,192.73-68.418,192.73z M-53.846,187.537
		c-1.725,1.934-3.864,3.488-6.292,4.497c1.268-1.712,2.026-3.821,2.026-6.11c0-5.684-4.623-10.308-10.307-10.308
		s-10.308,4.624-10.308,10.308c0,1.912,0.533,3.699,1.445,5.236c-2.312-1.293-4.296-3.098-5.803-5.262
		c0.014-8.076,6.586-14.641,14.665-14.641c8.087,0,14.666,6.578,14.666,14.666C-53.752,186.469-53.788,187.006-53.846,187.537z
		 M-84.374,163.11c1.05-3.507,1.924-6.609,2.608-9.238c0.393,2.043,0.801,4.216,1.166,6.243c0.103,0.57,0.481,1.053,1.01,1.289
		c0.53,0.235,1.142,0.195,1.634-0.111c0.877-0.543,1.788-1.004,2.706-1.369c0.64-0.254,1.07-0.859,1.102-1.547
		c0.128-2.838,0.693-5.975,1.68-9.324c2.201-7.48,3.882-12.461,5.101-15.736c0.069,0.023,0.14,0.042,0.213,0.057
		c0.668,3.443,1.871,8.447,3.999,15.679c0.986,3.349,1.551,6.486,1.68,9.324c0.03,0.688,0.462,1.292,1.101,1.547
		c0.919,0.365,1.829,0.826,2.706,1.369c0.493,0.306,1.105,0.346,1.634,0.111c0.529-0.236,0.907-0.718,1.01-1.289
		c0.365-2.027,0.774-4.2,1.167-6.243c0.684,2.629,1.559,5.731,2.608,9.238c1.407,4.702,2.006,8.726,1.777,11.96
		c-0.005,0.066-0.006,0.133-0.003,0.199l0.021,0.35c0.009,0.135,0.02,0.269,0.02,0.405c0,2.206-0.431,4.311-1.186,6.253
		c-1.693-8.275-9.03-14.52-17.798-14.52c-8.023,0-14.837,5.235-17.235,12.463c-0.337-1.346-0.535-2.747-0.535-4.196
		c0-0.137,0.01-0.271,0.02-0.405l0.021-0.35c0.003-0.066,0.002-0.133-0.003-0.199C-86.379,171.836-85.782,167.813-84.374,163.11z"/>
	<path d="M-44.534,210.251l-17.274-5.263l17.274-5.264c0.925-0.281,1.445-1.26,1.164-2.184c-0.281-0.925-1.257-1.447-2.185-1.164
		l-22.258,6.781l-22.259-6.781c-0.926-0.28-1.902,0.239-2.184,1.164c-0.282,0.924,0.239,1.902,1.163,2.184l17.275,5.264
		l-17.275,5.263c-0.924,0.281-1.445,1.259-1.163,2.185c0.229,0.754,0.923,1.24,1.673,1.24c0.169,0,0.341-0.025,0.511-0.077
		l22.259-6.782l22.258,6.782c0.171,0.052,0.342,0.077,0.511,0.077c0.75,0,1.444-0.486,1.674-1.24
		C-43.088,211.51-43.609,210.532-44.534,210.251z"/>
</g>
<g>
	<path d="M66.85,154.786c-0.104-0.003-0.209-0.007-0.314-0.007c-6.4,0-12.297,3.317-15.634,8.725H8.276
		c-2.968,0-5.383,2.415-5.383,5.382v8.519c0,2.969,2.415,5.385,5.383,5.385h42.625c3.338,5.406,9.233,8.723,15.634,8.723
		l0.396-0.008c0.952-0.02,1.715-0.797,1.715-1.75v-33.216C68.646,155.591,67.797,154.813,66.85,154.786z M65.146,187.947
		c-4.917-0.459-9.315-3.337-11.696-7.741c-0.306-0.565-0.896-0.917-1.539-0.917H8.276c-1.039,0-1.883-0.846-1.883-1.885v-8.519
		c0-1.038,0.845-1.882,1.883-1.882h43.635c0.643,0,1.233-0.354,1.539-0.918c2.381-4.405,6.779-7.283,11.696-7.743V187.947z"/>
	<path d="M73.419,154.355c-0.967,0-1.75,0.784-1.75,1.75v34.081c0,0.967,0.783,1.75,1.75,1.75s1.75-0.783,1.75-1.75v-34.081
		C75.169,155.139,74.386,154.355,73.419,154.355z"/>
	<path d="M37.911,160.703h4.212c0.966,0,1.75-0.784,1.75-1.75s-0.784-1.75-1.75-1.75h-4.212c-0.967,0-1.75,0.784-1.75,1.75
		S36.944,160.703,37.911,160.703z"/>
	<path d="M83.382,155.606c0.379,0,0.761-0.123,1.082-0.375l11.68-9.203c0.76-0.598,0.89-1.698,0.291-2.458
		c-0.597-0.759-1.698-0.889-2.457-0.292l-11.68,9.203c-0.76,0.598-0.891,1.698-0.292,2.458
		C82.351,155.377,82.864,155.606,83.382,155.606z"/>
	<path d="M98.249,171.166l-14.869,0.002c-0.967,0-1.75,0.783-1.75,1.75s0.784,1.75,1.751,1.75l14.87-0.002
		c0.966,0,1.749-0.784,1.749-1.751C100,171.949,99.216,171.166,98.249,171.166z"/>
	<path d="M96.144,200.264l-11.68-9.203c-0.76-0.599-1.859-0.469-2.458,0.291s-0.468,1.859,0.292,2.458l11.68,9.202
		c0.32,0.254,0.703,0.376,1.082,0.376c0.518,0,1.03-0.229,1.375-0.667C97.033,201.961,96.903,200.861,96.144,200.264z"/>
</g>
<g>
	<path d="M208.133,152.737l-11.155-11.155c-1.154-1.155-2.692-1.796-4.333-1.806c-0.194-0.027-0.39-0.048-0.591-0.048h-5.814
		c-0.474,0-0.927,0.192-1.256,0.531c-0.33,0.34-0.508,0.798-0.494,1.271c0.003,0.091,0.01,0.181,0.016,0.271l0.008,0.112
		c0,6.844-6.195,12.411-13.81,12.411s-13.81-5.567-13.81-12.411l0.008-0.117c0.006-0.086,0.012-0.172,0.016-0.259
		c0.016-0.474-0.162-0.934-0.492-1.275c-0.329-0.341-0.783-0.533-1.258-0.533h-5.375c-0.252,0-0.507,0.02-0.793,0.063
		c-1.732-0.069-3.365,0.585-4.569,1.791l-11.156,11.155c-2.411,2.412-2.411,6.337-0.001,8.75l9.117,9.115
		c0.499,0.5,1.077,0.906,1.709,1.207v25.063c0,3.139,2.555,5.692,5.693,5.692h42.262c3.139,0,5.691-2.554,5.691-5.692V171.57
		c0.469-0.266,0.894-0.59,1.271-0.968l9.117-9.116C210.545,159.074,210.544,155.149,208.133,152.737z M168.953,199.063h-19.161
		c-1.209,0-2.193-0.983-2.193-2.192v-26.308c0-0.828-0.58-1.542-1.39-1.712c-0.515-0.108-0.979-0.358-1.345-0.724l-9.116-9.116
		c-1.048-1.047-1.047-2.752,0.001-3.8l11.155-11.155c0.496-0.496,1.167-0.769,1.889-0.769c0.063,0,0.127,0.002,0.19,0.006
		c0.141,0.01,0.283,0.001,0.423-0.022c0.126-0.023,0.253-0.043,0.386-0.043h3.66c0.683,7.628,7.245,13.747,15.501,14.512V199.063z
		 M205.659,159.011l-9.117,9.117c-0.287,0.286-0.65,0.501-1.082,0.64c-0.724,0.232-1.215,0.906-1.215,1.666v26.437
		c0,1.209-0.982,2.192-2.191,2.192h-19.601V157.74c8.256-0.766,14.818-6.884,15.501-14.512h4.088c0.046,0.002,0.09,0.01,0.135,0.017
		l0.143,0.019c0.07,0.009,0.214,0.013,0.285,0.013c0.721,0,1.395,0.277,1.898,0.781l11.154,11.155
		C206.706,156.259,206.706,157.964,205.659,159.011z"/>
	<path d="M151.031,164.266v3.357c0,0.829,0.671,1.5,1.5,1.5h11.749c0.828,0,1.5-0.671,1.5-1.5v-3.357c0-0.829-0.672-1.5-1.5-1.5
		h-11.749C151.702,162.766,151.031,163.437,151.031,164.266z"/>
	<path d="M188.695,162.947h-10.53c-0.811,0-1.514,0.556-1.702,1.344c-0.09,0.376-0.134,0.727-0.134,1.072v4.953
		c0,2.55,2.074,4.624,4.625,4.624h4.953c2.549,0,4.623-2.074,4.623-4.624v-4.953c0-0.346-0.043-0.696-0.133-1.072
		C190.21,163.503,189.505,162.947,188.695,162.947z M187.03,170.316c0,0.62-0.504,1.124-1.123,1.124h-4.953
		c-0.62,0-1.125-0.504-1.125-1.124v-3.869h7.201V170.316z"/>
</g>
<g>
	<path d="M319.504,152.008h-55.661c-0.876,0-1.617,0.648-1.734,1.517c-0.071,0.53-0.104,0.983-0.104,1.429v37.091
		c0,5.928,4.822,10.75,10.75,10.75h16.024c0.942,0,1.716-0.746,1.749-1.688l1.062-29.967h2.141l1.242,29.977
		c0.038,0.938,0.81,1.678,1.748,1.678h13.873c5.928,0,10.75-4.822,10.75-10.75v-37.091c0-0.445-0.033-0.898-0.104-1.429
		C321.121,152.657,320.38,152.008,319.504,152.008z M290.555,167.639c-0.155,0-0.655,0.002-0.655,0.002
		c-0.942,0-1.716,0.746-1.749,1.688l-1.062,29.966h-14.335c-3.998,0-7.25-3.252-7.25-7.25v-23.819
		c4.673-0.174,8.422-4.02,8.422-8.733c0-0.966-0.783-1.75-1.75-1.75s-1.75,0.784-1.75,1.75c0,2.783-2.183,5.044-4.922,5.217v-9.201
		h28.998C294.228,163.471,291.67,167.639,290.555,167.639z M310.593,199.295h-12.194l-1.242-29.976
		c-0.038-0.938-0.81-1.678-1.748-1.678h-0.167c1.668-2.965,2.604-7.485,2.761-12.133h19.841v9.2
		c-2.734-0.178-4.912-2.437-4.912-5.216c0-0.966-0.783-1.75-1.75-1.75s-1.75,0.784-1.75,1.75c0,4.711,3.744,8.554,8.412,8.733
		v23.819C317.843,196.043,314.591,199.295,310.593,199.295z"/>
	<path d="M288.982,150.038h5.383c2.841,0,5.151-2.311,5.151-5.15c0-2.841-2.311-5.151-5.151-5.151h-5.383
		c-2.841,0-5.151,2.311-5.151,5.151C283.831,147.727,286.142,150.038,288.982,150.038z M288.982,143.236h5.383
		c0.91,0,1.651,0.741,1.651,1.651s-0.741,1.65-1.651,1.65h-5.383c-0.91,0-1.651-0.74-1.651-1.65S288.072,143.236,288.982,143.236z"
		/>
	<path d="M319.64,139.496h-20.22c0.996,0.935,1.732,2.14,2.093,3.5h16.377v3.783h-16.377c-0.361,1.36-1.097,2.565-2.094,3.5h20.221
		c0.967,0,1.75-0.783,1.75-1.75v-7.283C321.39,140.279,320.606,139.496,319.64,139.496z"/>
	<path d="M263.707,150.279h20.222c-0.997-0.935-1.732-2.14-2.094-3.5h-16.378v-3.783h16.378c0.36-1.36,1.097-2.565,2.093-3.5
		h-20.221c-0.967,0-1.75,0.783-1.75,1.75v7.283C261.957,149.496,262.74,150.279,263.707,150.279z"/>
	<path d="M267.65,178.605v6.518c0,3.846,3.884,6.973,8.658,6.973s8.659-3.127,8.659-6.973v-6.518c0-3.844-3.885-6.973-8.659-6.973
		S267.65,174.762,267.65,178.605z M276.309,188.596c-2.796,0-5.158-1.59-5.158-3.473v-3.475h10.317v3.475
		C281.468,187.006,279.105,188.596,276.309,188.596z M276.309,175.133c2.565,0,4.741,1.342,5.089,3.016h-10.176
		C271.567,176.475,273.744,175.133,276.309,175.133z"/>
</g>
<g>
	<path d="M364.392,194.988l6.24,6.392c0.344,0.351,0.798,0.527,1.253,0.527c0.44,0,0.882-0.165,1.223-0.497
		c0.691-0.676,0.704-1.783,0.03-2.476l-5.076-5.199l7.303-6.431c0.725-0.639,0.795-1.744,0.156-2.47s-1.745-0.794-2.47-0.157
		l-8.698,7.66c-0.726,0.639-0.796,1.744-0.157,2.471C364.255,194.877,364.325,194.932,364.392,194.988z"/>
	<path d="M446.247,201.409c0.34,0.333,0.781,0.498,1.223,0.498c0.454,0,0.908-0.177,1.252-0.527l6.192-6.343
		c0.104-0.08,0.202-0.175,0.29-0.281c0.609-0.75,0.496-1.853-0.254-2.463l-4.334-3.523c-0.75-0.608-1.852-0.495-2.461,0.254
		c-0.61,0.75-0.496,1.853,0.254,2.463l2.832,2.303l-5.023,5.146C445.542,199.626,445.556,200.734,446.247,201.409z"/>
	<path d="M437.575,182.677l6.5,5.285c0.324,0.264,0.715,0.392,1.104,0.392c0.508,0,1.012-0.221,1.358-0.646
		c0.61-0.75,0.496-1.853-0.254-2.462l-6.5-5.285c-0.751-0.609-1.851-0.496-2.462,0.254
		C436.712,180.965,436.825,182.066,437.575,182.677z"/>
	<path d="M365.785,140.387c0.448,0,0.896-0.171,1.237-0.512l6.057-6.055l6.055,6.055c0.342,0.342,0.789,0.513,1.237,0.513
		s0.896-0.171,1.237-0.513c0.684-0.684,0.684-1.792,0-2.475l-7.152-7.151c-0.377-0.378-0.885-0.539-1.379-0.499
		c-0.492-0.04-1,0.122-1.377,0.499l-7.152,7.151c-0.684,0.684-0.684,1.792,0,2.475C364.89,140.216,365.337,140.387,365.785,140.387z
		"/>
	<path d="M380.371,150.006c0.448,0,0.896-0.171,1.237-0.513c0.684-0.683,0.684-1.792,0-2.475l-7.152-7.151
		c-0.377-0.377-0.885-0.539-1.377-0.5c-0.494-0.04-1.001,0.122-1.379,0.5l-7.152,7.151c-0.684,0.683-0.684,1.791,0,2.475
		c0.342,0.342,0.789,0.513,1.237,0.513s0.896-0.171,1.237-0.513l6.056-6.055l6.056,6.055
		C379.476,149.835,379.923,150.006,380.371,150.006z"/>
	<path d="M371.05,149.846v9.063c0,0.966,0.784,1.75,1.75,1.75c0.967,0,1.75-0.784,1.75-1.75v-9.063c0-0.966-0.783-1.75-1.75-1.75
		C371.834,148.096,371.05,148.88,371.05,149.846z"/>
	<path d="M390.185,140.387c0.448,0,0.896-0.171,1.238-0.513l6.055-6.054l6.056,6.055c0.342,0.341,0.79,0.512,1.237,0.512
		s0.896-0.171,1.238-0.513c0.683-0.684,0.683-1.792-0.001-2.475l-7.152-7.151c-0.378-0.377-0.884-0.538-1.378-0.499
		c-0.494-0.04-1,0.121-1.379,0.499l-7.15,7.151c-0.684,0.683-0.684,1.791,0,2.475C389.29,140.216,389.737,140.387,390.185,140.387z"
		/>
	<path d="M390.185,150.006c0.448,0,0.896-0.171,1.238-0.513l6.055-6.055l6.056,6.055c0.026,0.026,0.056,0.043,0.083,0.068
		l-31.273,44.925c-0.553,0.793-0.357,1.885,0.436,2.436c0.793,0.553,1.884,0.357,2.436-0.436l34.046-48.907l32.728,50.073
		c0.336,0.514,0.896,0.793,1.467,0.793c0.328,0,0.66-0.093,0.955-0.285c0.81-0.529,1.037-1.613,0.508-2.423l-29.778-45.561
		l6.738-6.738l6.056,6.055c0.342,0.342,0.789,0.513,1.236,0.513c0.448,0,0.896-0.171,1.238-0.513c0.684-0.683,0.684-1.792,0-2.475
		l-7.152-7.151c-0.377-0.377-0.884-0.539-1.377-0.5c-0.494-0.04-1.001,0.122-1.379,0.5l-7.316,7.316l-2.412-3.69
		c-0.318-0.487-0.857-0.784-1.439-0.792c-0.561,0.001-1.13,0.273-1.461,0.75l-2.229,3.202l-6.786-6.785
		c-0.378-0.377-0.885-0.539-1.378-0.5c-0.494-0.04-1,0.122-1.379,0.5l-7.15,7.151c-0.684,0.683-0.684,1.792,0,2.475
		C389.29,149.835,389.737,150.006,390.185,150.006z"/>
	<path d="M438.983,140.387c0.447,0,0.895-0.171,1.236-0.512l6.057-6.055l6.056,6.055c0.342,0.341,0.79,0.512,1.237,0.512
		s0.896-0.171,1.238-0.513c0.683-0.684,0.683-1.792-0.001-2.475l-7.152-7.151c-0.378-0.377-0.884-0.538-1.378-0.499
		c-0.494-0.04-1,0.122-1.379,0.499l-7.152,7.151c-0.684,0.684-0.684,1.792,0,2.475C438.087,140.216,438.535,140.387,438.983,140.387
		z"/>
	<path d="M452.332,149.494c0.342,0.342,0.79,0.513,1.237,0.513s0.896-0.171,1.237-0.513c0.684-0.684,0.684-1.792,0-2.475
		l-7.152-7.151c-0.378-0.377-0.884-0.539-1.378-0.5c-0.494-0.04-1,0.122-1.379,0.5l-7.152,7.151c-0.684,0.683-0.684,1.791,0,2.475
		c0.342,0.342,0.79,0.513,1.238,0.513c0.447,0,0.895-0.171,1.236-0.513l6.057-6.055L452.332,149.494z"/>
	<path d="M446.554,160.659c0.967,0,1.75-0.784,1.75-1.75v-9.063c0-0.966-0.783-1.75-1.75-1.75c-0.966,0-1.75,0.784-1.75,1.75v9.063
		C444.804,159.875,445.588,160.659,446.554,160.659z"/>
	<path d="M414.584,140.387c0.448,0,0.896-0.171,1.237-0.512l6.057-6.055l6.055,6.054c0.342,0.342,0.789,0.513,1.236,0.513
		c0.448,0,0.896-0.171,1.238-0.513c0.684-0.684,0.684-1.792,0-2.475l-7.152-7.151c-0.377-0.378-0.885-0.539-1.379-0.499
		c-0.492-0.04-1,0.122-1.377,0.499l-7.152,7.151c-0.684,0.684-0.684,1.792,0,2.475C413.688,140.216,414.136,140.387,414.584,140.387
		z"/>
	<path d="M454.964,207.047H364.39c-0.966,0-1.75,0.784-1.75,1.75c0,0.967,0.784,1.75,1.75,1.75h90.574c0.967,0,1.75-0.783,1.75-1.75
		C456.714,207.831,455.931,207.047,454.964,207.047z"/>
	<path d="M410.604,163.677c0-0.966-0.784-1.75-1.75-1.75c-0.021,0-0.041,0.005-0.063,0.006c-0.021-0.001-0.041-0.006-0.063-0.006
		c-0.966,0-1.75,0.784-1.75,1.75c0,13.281-21.612,31.39-21.83,31.572c-0.744,0.618-0.846,1.721-0.229,2.464
		c0.346,0.417,0.845,0.633,1.348,0.633c0.394,0,0.789-0.133,1.116-0.404c0.784-0.65,16.226-13.598,21.407-26.52
		c5.182,12.922,20.623,25.869,21.407,26.52c0.327,0.271,0.723,0.404,1.116,0.404c0.503,0,1.002-0.216,1.348-0.633
		c0.617-0.743,0.516-1.846-0.229-2.464C432.217,195.067,410.604,176.958,410.604,163.677z"/>
</g>
</svg>
