<?xml version="1.0" encoding="UTF-8" standalone="no"?> <svg id="sad" xmlns="http://www.w3.org/2000/svg" viewBox="0 0 64 64"><defs><style>.cls-1{fill:#ffe082;stroke:#ffe082;}.cls-1,.cls-2,.cls-3,.cls-5,.cls-6{stroke-linecap:round;stroke-linejoin:round;stroke-width:2px;}.cls-2{fill:#5b3b63;stroke:#5b3b63;opacity:0.05;}.cls-3,.cls-6{fill:none;}.cls-3,.cls-5{stroke:#ffb74d;}.cls-4{fill:#4f4f4f;}.cls-5{fill:#ffb74d;}.cls-6{stroke:#f57e17;}</style></defs><title>sad</title><path class="cls-1" d="M11,23V51.87A9.13,9.13,0,0,0,20.13,61h2.93A3.94,3.94,0,0,0,27,57.06V54H37v3.06A3.94,3.94,0,0,0,40.94,61h2.93A9.13,9.13,0,0,0,53,51.87V23A21,21,0,0,0,32,2h0A21,21,0,0,0,11,23Z"/><path class="cls-2" d="M19,57.06a3.92,3.92,0,0,1-2,3.39,9.1,9.1,0,0,0,3.09.55h2.93A3.94,3.94,0,0,0,27,57.06V54H19Z"/><path class="cls-2" d="M32,2a21.09,21.09,0,0,0-4,.39A21,21,0,0,1,45,23V51.87a9.13,9.13,0,0,1-6,8.58,3.9,3.9,0,0,0,2,.55h2.93A9.13,9.13,0,0,0,53,51.87V23A21,21,0,0,0,32,2Z"/><line class="cls-3" x1="24" y1="54" x2="40" y2="54"/><circle class="cls-4" cx="20" cy="22" r="2"/><circle class="cls-4" cx="44" cy="22" r="2"/><path class="cls-5" d="M11,41v6a4,4,0,0,0,4,4h0a4,4,0,0,0,4-4V41Z"/><path class="cls-5" d="M53,35v6a4,4,0,0,1-4,4h0a4,4,0,0,1-4-4V35Z"/><path class="cls-6" d="M39,31.09C37.67,29.84,35,29,32,29a11.13,11.13,0,0,0-6.9,2"/></svg>